<svg width="206" height="40" viewBox="0 0 206 40" fill="none" xmlns="http://www.w3.org/2000/svg">
<rect width="206" height="40" fill="white"/>
<path d="M10.9176 29V11.5455H21.7415V13.8125H13.5511V19.1307H20.9659V21.3892H13.5511V29H10.9176ZM32.2479 23.571V15.9091H34.8047V29H32.299V26.733H32.1626C31.8615 27.4318 31.3786 28.0142 30.7138 28.4801C30.0547 28.9403 29.2337 29.1705 28.2507 29.1705C27.4098 29.1705 26.6655 28.9858 26.0178 28.6165C25.3757 28.2415 24.87 27.6875 24.5007 26.9545C24.1371 26.2216 23.9553 25.3153 23.9553 24.2358V15.9091H26.5036V23.929C26.5036 24.821 26.7507 25.5312 27.245 26.0597C27.7393 26.5881 28.3814 26.8523 29.1712 26.8523C29.6484 26.8523 30.1229 26.733 30.5945 26.4943C31.0717 26.2557 31.4666 25.8949 31.7791 25.4119C32.0973 24.929 32.2536 24.3153 32.2479 23.571ZM38.2287 29V15.9091H40.6918V17.9886H40.8281C41.0668 17.2841 41.4872 16.7301 42.0895 16.3267C42.6974 15.9176 43.3849 15.7131 44.152 15.7131C44.3111 15.7131 44.4986 15.7187 44.7145 15.7301C44.9361 15.7415 45.1094 15.7557 45.2344 15.7727V18.2102C45.1321 18.1818 44.9503 18.1506 44.6889 18.1165C44.4276 18.0767 44.1662 18.0568 43.9048 18.0568C43.3026 18.0568 42.7656 18.1847 42.294 18.4403C41.8281 18.6903 41.4588 19.0398 41.1861 19.4886C40.9134 19.9318 40.777 20.4375 40.777 21.0057V29H38.2287ZM49.9879 21.2273V29H47.4396V15.9091H49.8857V18.0398H50.0476C50.3487 17.3466 50.8203 16.7898 51.4624 16.3693C52.1101 15.9489 52.9254 15.7386 53.9084 15.7386C54.8004 15.7386 55.5817 15.9261 56.2521 16.3011C56.9226 16.6705 57.4425 17.2216 57.8118 17.9545C58.1811 18.6875 58.3658 19.5937 58.3658 20.6733V29H55.8175V20.9801C55.8175 20.0312 55.5703 19.2898 55.076 18.7557C54.5817 18.2159 53.9027 17.946 53.0391 17.946C52.4482 17.946 51.9226 18.0739 51.4624 18.3295C51.0078 18.5852 50.647 18.9602 50.38 19.4545C50.1186 19.9432 49.9879 20.5341 49.9879 21.2273ZM61.7834 29V15.9091H64.3317V29H61.7834ZM63.0703 13.8892C62.6271 13.8892 62.2464 13.7415 61.9283 13.446C61.6158 13.1449 61.4595 12.7869 61.4595 12.3722C61.4595 11.9517 61.6158 11.5937 61.9283 11.2983C62.2464 10.9972 62.6271 10.8466 63.0703 10.8466C63.5135 10.8466 63.8913 10.9972 64.2038 11.2983C64.522 11.5937 64.6811 11.9517 64.6811 12.3722C64.6811 12.7869 64.522 13.1449 64.2038 13.446C63.8913 13.7415 63.5135 13.8892 63.0703 13.8892ZM73.8707 15.9091V17.9545H66.7202V15.9091H73.8707ZM68.6378 12.7727H71.1861V25.1562C71.1861 25.6506 71.2599 26.0227 71.4077 26.2727C71.5554 26.517 71.7457 26.6847 71.9787 26.7756C72.2173 26.8608 72.4759 26.9034 72.7543 26.9034C72.9588 26.9034 73.1378 26.8892 73.2912 26.8608C73.4446 26.8324 73.5639 26.8097 73.6491 26.7926L74.1094 28.8977C73.9616 28.9545 73.7514 29.0114 73.4787 29.0682C73.206 29.1307 72.8651 29.1648 72.456 29.1705C71.7855 29.1818 71.1605 29.0625 70.581 28.8125C70.0014 28.5625 69.5327 28.1761 69.1747 27.6534C68.8168 27.1307 68.6378 26.4744 68.6378 25.6847V12.7727ZM84.9822 23.571V15.9091H87.5391V29H85.0334V26.733H84.897C84.5959 27.4318 84.1129 28.0142 83.4482 28.4801C82.7891 28.9403 81.968 29.1705 80.9851 29.1705C80.1442 29.1705 79.3999 28.9858 78.7521 28.6165C78.1101 28.2415 77.6044 27.6875 77.2351 26.9545C76.8714 26.2216 76.6896 25.3153 76.6896 24.2358V15.9091H79.2379V23.929C79.2379 24.821 79.4851 25.5312 79.9794 26.0597C80.4737 26.5881 81.1158 26.8523 81.9055 26.8523C82.3828 26.8523 82.8572 26.733 83.3288 26.4943C83.8061 26.2557 84.201 25.8949 84.5135 25.4119C84.8317 24.929 84.9879 24.3153 84.9822 23.571ZM90.9631 29V15.9091H93.4261V17.9886H93.5625C93.8011 17.2841 94.2216 16.7301 94.8239 16.3267C95.4318 15.9176 96.1193 15.7131 96.8864 15.7131C97.0455 15.7131 97.233 15.7187 97.4489 15.7301C97.6705 15.7415 97.8438 15.7557 97.9688 15.7727V18.2102C97.8665 18.1818 97.6847 18.1506 97.4233 18.1165C97.1619 18.0767 96.9006 18.0568 96.6392 18.0568C96.0369 18.0568 95.5 18.1847 95.0284 18.4403C94.5625 18.6903 94.1932 19.0398 93.9205 19.4886C93.6477 19.9318 93.5114 20.4375 93.5114 21.0057V29H90.9631ZM105.347 29.2642C104.058 29.2642 102.947 28.9886 102.015 28.4375C101.089 27.8807 100.373 27.0994 99.8672 26.0938C99.3672 25.0824 99.1172 23.8977 99.1172 22.5398C99.1172 21.1989 99.3672 20.017 99.8672 18.9943C100.373 17.9716 101.077 17.1733 101.981 16.5994C102.89 16.0256 103.952 15.7386 105.168 15.7386C105.907 15.7386 106.623 15.8608 107.316 16.1051C108.009 16.3494 108.631 16.733 109.183 17.2557C109.734 17.7784 110.168 18.4574 110.487 19.2926C110.805 20.1222 110.964 21.1307 110.964 22.3182V23.2216H100.558V21.3125H108.467C108.467 20.642 108.33 20.0483 108.058 19.5312C107.785 19.0085 107.401 18.5966 106.907 18.2955C106.418 17.9943 105.844 17.8438 105.185 17.8438C104.469 17.8438 103.844 18.0199 103.31 18.3722C102.782 18.7187 102.373 19.1733 102.083 19.7358C101.799 20.2926 101.657 20.8977 101.657 21.5511V23.0426C101.657 23.9176 101.81 24.6619 102.117 25.2756C102.43 25.8892 102.864 26.358 103.421 26.6818C103.978 27 104.629 27.1591 105.373 27.1591C105.856 27.1591 106.296 27.0909 106.694 26.9545C107.092 26.8125 107.435 26.6023 107.725 26.3239C108.015 26.0455 108.237 25.7017 108.39 25.2926L110.802 25.7273C110.609 26.4375 110.262 27.0597 109.762 27.5938C109.268 28.1222 108.646 28.5341 107.896 28.8295C107.151 29.1193 106.302 29.2642 105.347 29.2642ZM125.998 29H120.347V11.5455H126.177C127.887 11.5455 129.356 11.8949 130.583 12.5938C131.81 13.2869 132.751 14.2841 133.404 15.5852C134.063 16.8807 134.393 18.4347 134.393 20.2472C134.393 22.0653 134.06 23.6278 133.396 24.9347C132.737 26.2415 131.782 27.2472 130.532 27.9517C129.282 28.6506 127.771 29 125.998 29ZM122.981 26.6989H125.853C127.183 26.6989 128.288 26.4489 129.168 25.9489C130.049 25.4432 130.708 24.7131 131.146 23.7585C131.583 22.7983 131.802 21.6278 131.802 20.2472C131.802 18.8778 131.583 17.7159 131.146 16.7614C130.714 15.8068 130.069 15.0824 129.211 14.5881C128.353 14.0937 127.288 13.8466 126.015 13.8466H122.981V26.6989ZM143.105 29.2642C141.815 29.2642 140.705 28.9886 139.773 28.4375C138.847 27.8807 138.131 27.0994 137.625 26.0938C137.125 25.0824 136.875 23.8977 136.875 22.5398C136.875 21.1989 137.125 20.017 137.625 18.9943C138.131 17.9716 138.835 17.1733 139.739 16.5994C140.648 16.0256 141.71 15.7386 142.926 15.7386C143.665 15.7386 144.381 15.8608 145.074 16.1051C145.767 16.3494 146.389 16.733 146.94 17.2557C147.491 17.7784 147.926 18.4574 148.244 19.2926C148.563 20.1222 148.722 21.1307 148.722 22.3182V23.2216H138.315V21.3125H146.224C146.224 20.642 146.088 20.0483 145.815 19.5312C145.543 19.0085 145.159 18.5966 144.665 18.2955C144.176 17.9943 143.602 17.8438 142.943 17.8438C142.227 17.8438 141.602 18.0199 141.068 18.3722C140.54 18.7187 140.131 19.1733 139.841 19.7358C139.557 20.2926 139.415 20.8977 139.415 21.5511V23.0426C139.415 23.9176 139.568 24.6619 139.875 25.2756C140.188 25.8892 140.622 26.358 141.179 26.6818C141.736 27 142.386 27.1591 143.131 27.1591C143.614 27.1591 144.054 27.0909 144.452 26.9545C144.849 26.8125 145.193 26.6023 145.483 26.3239C145.773 26.0455 145.994 25.7017 146.148 25.2926L148.56 25.7273C148.366 26.4375 148.02 27.0597 147.52 27.5938C147.026 28.1222 146.403 28.5341 145.653 28.8295C144.909 29.1193 144.06 29.2642 143.105 29.2642ZM161.359 19.1051L159.049 19.5142C158.952 19.2187 158.799 18.9375 158.589 18.6705C158.384 18.4034 158.106 18.1847 157.754 18.0142C157.401 17.8437 156.961 17.7585 156.433 17.7585C155.711 17.7585 155.109 17.9205 154.626 18.2443C154.143 18.5625 153.901 18.9744 153.901 19.4801C153.901 19.9176 154.063 20.2699 154.387 20.5369C154.711 20.804 155.234 21.0227 155.955 21.1932L158.035 21.6705C159.239 21.9489 160.137 22.3778 160.728 22.9574C161.319 23.5369 161.614 24.2898 161.614 25.2159C161.614 26 161.387 26.6989 160.933 27.3125C160.484 27.9205 159.856 28.3977 159.049 28.7443C158.248 29.0909 157.319 29.2642 156.262 29.2642C154.796 29.2642 153.6 28.9517 152.674 28.3267C151.748 27.696 151.18 26.8011 150.969 25.642L153.433 25.267C153.586 25.9091 153.901 26.3949 154.379 26.7244C154.856 27.0483 155.478 27.2102 156.245 27.2102C157.08 27.2102 157.748 27.0369 158.248 26.6903C158.748 26.3381 158.998 25.9091 158.998 25.4034C158.998 24.9943 158.844 24.6506 158.538 24.3722C158.237 24.0937 157.773 23.8835 157.148 23.7415L154.933 23.2557C153.711 22.9773 152.808 22.5341 152.222 21.9261C151.643 21.3182 151.353 20.5483 151.353 19.6165C151.353 18.8437 151.569 18.1676 152.001 17.5881C152.433 17.0085 153.029 16.5568 153.79 16.233C154.552 15.9034 155.424 15.7386 156.407 15.7386C157.822 15.7386 158.935 16.0455 159.748 16.6591C160.56 17.267 161.097 18.0824 161.359 19.1051ZM164.416 29V15.9091H166.964V29H164.416ZM165.703 13.8892C165.26 13.8892 164.879 13.7415 164.561 13.446C164.249 13.1449 164.092 12.7869 164.092 12.3722C164.092 11.9517 164.249 11.5937 164.561 11.2983C164.879 10.9972 165.26 10.8466 165.703 10.8466C166.146 10.8466 166.524 10.9972 166.837 11.2983C167.155 11.5937 167.314 11.9517 167.314 12.3722C167.314 12.7869 167.155 13.1449 166.837 13.446C166.524 13.7415 166.146 13.8892 165.703 13.8892ZM175.881 34.1818C174.842 34.1818 173.947 34.0455 173.197 33.7727C172.452 33.5 171.844 33.1392 171.373 32.6903C170.901 32.2415 170.549 31.75 170.316 31.2159L172.506 30.3125C172.66 30.5625 172.864 30.8267 173.12 31.1051C173.381 31.3892 173.734 31.6307 174.177 31.8295C174.626 32.0284 175.202 32.1278 175.907 32.1278C176.873 32.1278 177.671 31.892 178.302 31.4205C178.933 30.9545 179.248 30.2102 179.248 29.1875V26.6136H179.086C178.933 26.892 178.711 27.2017 178.421 27.5426C178.137 27.8835 177.745 28.179 177.245 28.429C176.745 28.679 176.094 28.804 175.293 28.804C174.259 28.804 173.327 28.5625 172.498 28.0795C171.674 27.5909 171.021 26.8722 170.538 25.9233C170.06 24.9687 169.822 23.7955 169.822 22.4034C169.822 21.0114 170.058 19.8182 170.529 18.8239C171.006 17.8295 171.66 17.0682 172.489 16.5398C173.319 16.0057 174.259 15.7386 175.31 15.7386C176.123 15.7386 176.779 15.875 177.279 16.1477C177.779 16.4148 178.168 16.7273 178.447 17.0852C178.731 17.4432 178.95 17.7585 179.103 18.0312H179.29V15.9091H181.788V29.2898C181.788 30.4148 181.526 31.3381 181.004 32.0597C180.481 32.7813 179.773 33.3153 178.881 33.6619C177.995 34.0085 176.995 34.1818 175.881 34.1818ZM175.856 26.6903C176.589 26.6903 177.208 26.5199 177.714 26.179C178.225 25.8324 178.612 25.3381 178.873 24.696C179.14 24.0483 179.273 23.2727 179.273 22.3693C179.273 21.4886 179.143 20.7131 178.881 20.0426C178.62 19.3722 178.237 18.8494 177.731 18.4744C177.225 18.0937 176.6 17.9034 175.856 17.9034C175.089 17.9034 174.45 18.1023 173.938 18.5C173.427 18.892 173.04 19.4261 172.779 20.1023C172.523 20.7784 172.396 21.5341 172.396 22.3693C172.396 23.2273 172.526 23.9801 172.788 24.6278C173.049 25.2756 173.435 25.7812 173.947 26.1449C174.464 26.5085 175.1 26.6903 175.856 26.6903ZM187.754 21.2273V29H185.205V15.9091H187.651V18.0398H187.813C188.114 17.3466 188.586 16.7898 189.228 16.3693C189.876 15.9489 190.691 15.7386 191.674 15.7386C192.566 15.7386 193.347 15.9261 194.018 16.3011C194.688 16.6705 195.208 17.2216 195.577 17.9545C195.947 18.6875 196.131 19.5937 196.131 20.6733V29H193.583V20.9801C193.583 20.0312 193.336 19.2898 192.842 18.7557C192.347 18.2159 191.668 17.946 190.805 17.946C190.214 17.946 189.688 18.0739 189.228 18.3295C188.773 18.5852 188.413 18.9602 188.146 19.4545C187.884 19.9432 187.754 20.5341 187.754 21.2273Z" fill="#545353"/>
</svg>
